<?xml version="1.0" encoding="UTF-8" standalone="no"?>
<svg
   xmlns:dc="http://purl.org/dc/elements/1.1/"
   xmlns:cc="http://creativecommons.org/ns#"
   xmlns:rdf="http://www.w3.org/1999/02/22-rdf-syntax-ns#"
   xmlns:svg="http://www.w3.org/2000/svg"
   xmlns="http://www.w3.org/2000/svg"
   xmlns:sodipodi="http://sodipodi.sourceforge.net/DTD/sodipodi-0.dtd"
   xmlns:inkscape="http://www.inkscape.org/namespaces/inkscape"
   sodipodi:docname="arrow.svg"
   inkscape:version="1.0 (4035a4fb49, 2020-05-01)"
   id="svg8"
   version="1.1"
   viewBox="0 0 210 297"
   height="297mm"
   width="210mm">
   <defs id="defs2">
   <rect
         id="rect20"
         height="27.970238"
         width="145.89881"
         y="30.994048"
         x="27.970238" />
   </defs>
   <sodipodi:namedview
      inkscape:window-maximized="1"
      inkscape:window-y="-9"
      inkscape:window-x="-9"
      inkscape:window-height="1051"
      inkscape:window-width="1920"
      showgrid="false"
      inkscape:document-rotation="0"
      inkscape:current-layer="layer1"
      inkscape:document-units="mm"
      inkscape:cy="560"
      inkscape:cx="400"
      inkscape:zoom="0.35"
      inkscape:pageshadow="2"
      inkscape:pageopacity="0.0"
      borderopacity="1.0"
      bordercolor="#666666"
      pagecolor="#ffffff"
      id="base" />
  <metadata
     id="metadata5">
    <rdf:RDF>
      <cc:Work
         rdf:about="">
        <dc:format>image/svg+xml</dc:format>
        <dc:type
           rdf:resource="http://purl.org/dc/dcmitype/StillImage" />
        <dc:title></dc:title>
      </cc:Work>
    </rdf:RDF>
  </metadata>
  <g
     id="layer1"
     inkscape:groupmode="layer"
     inkscape:label="Layer 1">
    <path
       d="m 171.63675,122.97013 c -5.73559,0.0465 -11.47759,0.0707 -17.1299,1.20856 -2.19144,0.44116 -4.41667,0.83387 -6.50432,1.63309 -2.78464,1.06605 -5.35619,2.62183 -8.03429,3.93274 -5.61088,3.65013 -11.48095,6.92984 -16.83265,10.95037 -2.93915,2.20808 -5.49489,4.90945 -7.93643,7.65773 -5.26236,5.92351 -9.62295,12.52614 -12.72532,19.8385 -4.124162,9.72079 -3.968997,12.99567 -5.508316,23.23447 -0.05371,9.98184 -1.384927,25.44548 10.323946,30.12744 6.30713,2.52199 10.37729,0.75523 16.7857,-0.39204 12.89813,-5.19589 25.16663,-12.70617 34.14097,-23.48171 3.0478,-3.65951 6.59793,-8.98501 7.67789,-13.84099 0.41851,-1.88177 0.0659,-3.85492 0.0988,-5.78238 -0.81169,-1.6592 -1.27665,-3.53891 -2.43509,-4.97759 -2.82913,-3.51355 -7.8363,-5.95982 -11.91882,-7.33833 -6.33402,-2.13875 -12.73917,-2.90505 -19.41354,-2.88662 -3.96555,0.011 -7.91339,0.53027 -11.87008,0.7954 -12.78207,1.75963 -25.304668,5.13767 -37.169828,10.22951 -9.135517,3.92043 -19.512806,10.16393 -27.380077,15.48532 -2.518133,1.70325 -4.663573,3.9012 -6.99536,5.8518 -4.827497,5.62879 -6.396808,6.53902 -9.235463,13.52 -3.221535,7.92259 -4.080812,16.79074 -3.96268,25.26228 0.03289,2.35849 0.307569,4.70741 0.461353,7.06111 0.882568,5.31866 1.180609,11.43544 4.698732,15.85794 1.323924,1.66425 2.469339,2.37075 4.128929,3.62259 0,0 9.275102,-5.88217 9.275102,-5.88217 v 0 c -1.591153,-1.12565 -2.680109,-1.74903 -3.964023,-3.26602 -3.498577,-4.13369 -3.95103,-10.04402 -4.929235,-15.10879 -0.182428,-2.30017 -0.495661,-4.59369 -0.547284,-6.9005 -0.247022,-11.03842 1.603836,-22.67242 8.115238,-31.88227 1.552252,-2.19554 3.548029,-4.04116 5.322045,-6.06174 2.292424,-1.89198 4.67301,-3.68194 6.877277,-5.67594 0.189267,-0.17121 -0.01146,-0.61072 0.21087,-0.73605 14.594218,-8.22646 30.731169,-13.23575 47.273264,-15.61369 3.87932,-0.26415 7.74969,-0.77696 11.63796,-0.79245 6.55105,-0.0261 12.67843,0.70221 18.88474,2.80667 3.76707,1.27735 8.62615,3.64955 11.27704,6.89553 1.06219,1.30064 1.48754,3.01114 2.2313,4.51671 -0.0325,1.78556 0.29505,3.61451 -0.0975,5.35668 -1.05511,4.68214 -4.43744,9.77279 -7.40443,13.28732 -2.21094,2.61896 -5.02787,4.68602 -7.22147,7.31952 -0.39465,0.47379 0.13507,1.47527 -0.38292,1.8098 -2.89849,1.87191 -6.22492,2.97852 -9.33738,4.46779 -6.01317,1.2238 -10.03145,3.00794 -16.0526,0.87597 -11.51612,-4.07766 -10.35396,-19.28283 -10.36822,-28.81613 0.58687,-3.81811 0.84203,-7.70217 1.76061,-11.45431 1.99945,-8.16718 4.99947,-14.94667 9.63326,-21.95417 8.37998,-12.67274 5.401,-5.83977 15.27996,-16.69067 0.22859,-0.25108 -0.21069,-0.64559 -0.31603,-0.96838 2.55504,-1.30777 4.99792,-2.86287 7.66512,-3.9233 2.02777,-0.8062 4.20012,-1.20041 6.33679,-1.6436 5.46106,-1.13274 11.01819,-1.19488 16.56406,-0.98717 0,0 9.01233,-6.54783 9.01233,-6.54783 z"
       id="path14"
       style="fill:#0000ff;stroke-width:0.264583" />
    <path
       d="m 27.00113,261.27128 c 2.582738,1.37633 5.047106,2.94773 7.617311,4.34637 2.127036,1.08474 4.337523,2.02571 6.593332,2.80937 1.806444,0.47786 3.5858,1.041 5.370224,1.59373 0.469048,0.14529 0.921117,0.38132 1.410093,0.42623 0.663431,0.0609 1.330296,-0.0757 1.995443,-0.11348 5.973816,-2.50122 4.797456,-1.86818 14.058364,-8.20536 0.857374,-0.58669 1.439571,-1.49856 2.140648,-2.26524 0.720265,-0.78765 2.849023,-3.17168 3.480599,-4.15639 0.454033,-0.70789 0.766321,-1.49726 1.14948,-2.24589 1.551829,-3.56553 2.221002,-7.44549 2.148996,-11.32035 -0.310375,-2.35307 -0.08402,-1.16272 -0.698026,-3.5674 0,0 -9.756291,5.26454 -9.756291,5.26454 v 0 c 0.508558,2.26644 0.335542,1.1409 0.534789,3.37417 0.03079,3.70238 -0.653833,7.39252 -2.26862,10.74456 -1.446183,2.45307 -2.666095,4.02943 -4.6715,6.08691 -0.714554,0.7331 -3.190641,2.44033 -2.21634,2.12605 1.527668,-0.49277 11.14266,-6.04357 4.957798,-2.49536 -0.554231,0.16213 -1.085472,0.46996 -1.662695,0.48638 -0.487849,0.0139 -0.941172,-0.25906 -1.408728,-0.39899 -1.773453,-0.53078 -3.500402,-1.22255 -5.312148,-1.61872 -2.239853,-0.68759 -4.385304,-1.66078 -6.519402,-2.61964 -2.552729,-1.36448 -5.008049,-2.87664 -7.510693,-4.33028 0,0 -9.432634,6.07879 -9.432634,6.07879 z"
       id="path16"
       style="fill:#0000ff;stroke-width:0.264583" />
    <text
       transform="matrix(1.2810193,0,0,1.5466839,-20.801536,27.558701)"
       style="font-style:normal;font-weight:normal;font-size:10.5833px;line-height:1.25;font-family:sans-serif;white-space:pre;shape-inside:url(#rect20);fill:#000000;fill-opacity:1;stroke:none;"
       id="text18"
       xml:space="preserve"><tspan
         x="27.970703"
         y="40.649606"><tspan>Click here to submit a form </tspan></tspan><tspan
         x="27.970703"
         y="53.878732"><tspan>to join us!</tspan></tspan></text>
  </g>
</svg>
